# xmcd
#
# Track frame offsets:
#	150
#	20947
#	40155
#	59887
#	85307
#	102100
#	132065
#	151150
#	173802
#	191187
#	211457
#	263022
#	289545
#	323377
#
# Disc length: 4447 seconds
#
# Revision: 0
# Processed by: cddbd v1.4PL0 Copyright (c) Steve Scherf et al.
# Submitted via: dBpowerAMP V4.0
#
DISCID=c3115d0e
DTITLE=R.KELLY - 12 PLAY
DYEAR=1993
DGENRE=Pop/Funk
TTITLE0=YOUR BODY'S CALLIN'
TTITLE1=BUMP N' GRIND
TTITLE2=HOMIE LOVER FRIEND
TTITLE3=IT SEEMS LIKE YOU'RE READY
TTITLE4=FREAK DAT BODY
TTITLE5=I LIKE THE CROTCH ON YOU
TTITLE6=SUMMER BUNNIES
TTITLE7=FOR YOU
TTITLE8=BACK TO THE HOOD OF THINGS
TTITLE9=SADIE
TTITLE10=SEX ME(PART 1&2)
TTITLE11=12 PLAY
TTITLE12=YOUR BODY'S CALLIN'(HIS and HERS MIX)
TTITLE13=DATA
EXTD=
EXTT0=
EXTT1=
EXTT2=
EXTT3=
EXTT4=
EXTT5=
EXTT6=
EXTT7=
EXTT8=
EXTT9=
EXTT10=
EXTT11=
EXTT12=
EXTT13=
PLAYORDER=
